<?xml version="1.0" standalone="no"?>
<!DOCTYPE svg PUBLIC "-//W3C//DTD SVG 20010904//EN"
 "http://www.w3.org/TR/2001/REC-SVG-20010904/DTD/svg10.dtd">
<svg version="1.0" xmlns="http://www.w3.org/2000/svg"
 width="60pt" height="60pt" viewBox="0 0 353.000000 353.000000"
 preserveAspectRatio="xMidYMid meet">

<g transform="translate(0.000000,353.000000) scale(0.100000,-0.100000)"
fill="#FF0000" stroke="none">
<path d="M1571 3435 c-82 -87 -147 -182 -184 -270 -50 -123 -48 -128 67 -176
100 -41 191 -110 231 -173 27 -45 30 -57 30 -135 -1 -80 -3 -91 -39 -161 -36
-72 -119 -199 -279 -431 -40 -58 -80 -129 -90 -158 -37 -117 -11 -267 59 -328
77 -68 229 -63 276 9 84 130 4 293 -127 257 -63 -18 -83 -76 -44 -131 17 -23
27 -29 53 -26 26 2 32 8 34 31 2 15 8 27 13 27 18 0 21 -30 5 -55 -13 -19 -25
-25 -54 -25 -51 0 -83 33 -89 95 -5 43 -3 47 31 78 21 17 58 50 84 73 26 23
97 78 157 123 132 98 150 126 160 241 9 103 28 102 36 -1 4 -41 15 -95 26
-119 23 -51 216 -246 233 -235 5 3 10 17 10 31 0 39 -47 225 -75 300 -59 153
-73 176 -141 229 -36 28 -79 69 -95 93 -17 23 -33 42 -37 42 -4 0 -16 -31 -25
-69 -22 -85 -75 -195 -116 -241 -29 -33 -29 -31 14 55 53 105 82 210 91 333 5
71 3 94 -10 120 -24 46 -120 137 -208 195 -64 42 -78 56 -78 78 0 40 29 115
52 135 21 19 21 19 13 -1 -17 -44 -27 -104 -21 -126 6 -23 109 -111 209 -178
64 -44 83 -77 91 -164 7 -79 47 -176 90 -216 34 -32 44 -21 35 36 -4 26 -8 59
-8 73 1 24 1 24 14 -5 8 -16 21 -62 30 -102 17 -75 70 -165 156 -266 49 -57
159 -141 249 -190 74 -40 227 -104 262 -109 32 -4 27 17 -33 122 -65 117 -145
227 -251 347 -138 157 -157 172 -226 188 -83 20 -147 51 -193 95 -55 52 -48
69 9 21 72 -61 162 -92 162 -56 0 41 -79 163 -167 258 -25 27 -43 51 -40 54 3
3 25 -11 49 -30 48 -39 147 -84 215 -96 47 -9 83 -5 83 10 0 16 -182 198 -226
226 -24 15 -44 32 -44 36 0 5 42 6 94 2 102 -8 122 0 90 36 -24 27 -13 24 75
-17 l76 -36 210 6 c302 8 475 42 655 127 115 55 260 163 260 195 0 20 -160 28
-290 15 -63 -6 -196 -26 -295 -45 -325 -61 -407 -69 -619 -63 -212 6 -320 24
-471 77 -144 50 -131 52 -214 -35z"/>
<path d="M1245 3344 c-190 -17 -230 -25 -229 -46 1 -14 116 -191 367 -568 39
-58 75 -109 81 -113 14 -10 115 -1 181 17 l50 13 -1 54 c-1 64 -28 123 -77
166 -46 40 -143 98 -192 113 -56 18 -82 37 -89 64 -8 32 24 121 79 221 25 46
45 86 45 89 0 8 -35 6 -215 -10z"/>
<path d="M995 3238 c-3 -8 1 -76 10 -152 8 -76 15 -157 15 -179 0 -65 81 -217
116 -217 6 0 19 18 29 40 10 22 22 40 27 40 13 0 10 -18 -12 -60 -11 -22 -20
-46 -20 -53 0 -8 25 -24 60 -36 54 -20 78 -36 68 -46 -2 -3 -21 1 -41 7 -20 6
-40 9 -43 5 -8 -7 118 -239 132 -244 6 -2 25 26 42 62 42 85 60 85 21 -1 -17
-36 -29 -73 -27 -82 4 -21 105 -55 128 -42 9 5 28 24 42 42 32 42 126 224 134
261 8 33 -4 34 -108 11 -67 -15 -74 -15 -102 0 -22 12 -92 110 -240 332 -115
173 -213 317 -218 320 -4 3 -10 -1 -13 -8z"/>
<path d="M603 3096 c-72 -65 -331 -350 -423 -466 -88 -111 -160 -220 -160
-242 0 -34 542 -598 575 -598 17 0 425 427 425 445 0 8 -31 77 -69 153 -139
275 -197 423 -280 711 -11 37 -25 36 -68 -3z"/>
<path d="M2120 3123 c0 -4 35 -41 78 -83 42 -41 104 -105 137 -142 59 -67 58
-75 -7 -42 -15 8 -54 14 -88 14 -34 0 -81 5 -106 11 -25 6 -48 9 -51 5 -7 -7
107 -198 140 -236 28 -31 148 -127 203 -162 119 -76 291 -144 452 -179 110
-23 432 -39 432 -22 0 9 -200 170 -452 365 -25 19 -69 36 -137 53 -136 34
-323 106 -309 120 2 2 43 -9 92 -26 257 -86 632 -118 818 -69 84 23 171 90
153 120 -3 5 -25 10 -48 10 -129 1 -357 52 -762 172 -327 96 -332 98 -442 98
-57 0 -103 -3 -103 -7z"/>
<path d="M710 3084 c0 -4 14 -54 30 -111 44 -153 109 -312 221 -542 54 -112
99 -206 99 -209 0 -3 -54 -61 -120 -127 -66 -67 -120 -126 -120 -132 0 -5 14
-22 30 -38 35 -34 37 -52 10 -97 -25 -42 -17 -78 16 -78 14 0 68 22 122 49
119 60 174 76 202 61 19 -10 20 -19 18 -113 -2 -96 -1 -105 27 -156 46 -84
125 -137 238 -161 31 -6 68 -21 82 -32 24 -19 26 -26 21 -62 -4 -23 -24 -93
-45 -156 -22 -64 -42 -137 -46 -162 -7 -44 -5 -50 25 -79 27 -28 31 -38 27
-66 -8 -46 -33 -78 -256 -326 -161 -180 -200 -219 -241 -236 -47 -20 -65 -21
-456 -21 -398 0 -409 1 -452 22 l-45 21 -24 -27 c-26 -30 -33 -112 -11 -134
15 -15 948 -17 1027 -2 71 13 111 34 162 83 36 35 565 661 606 718 11 14 4 35
-41 131 -61 128 -76 185 -76 296 0 155 58 290 185 434 106 119 113 131 95 154
-8 9 -33 25 -56 35 -23 10 -60 39 -83 64 -23 25 -44 45 -47 45 -3 0 -32 -22
-65 -50 -33 -27 -85 -67 -117 -89 -31 -21 -65 -48 -75 -59 -19 -20 -18 -21 21
-41 107 -54 134 -191 59 -294 -66 -89 -229 -90 -314 -1 -99 102 -102 292 -9
439 18 27 35 60 38 73 7 26 -24 127 -38 127 -5 0 -23 -28 -39 -62 -58 -119
-75 -110 -20 10 19 42 35 83 35 92 0 17 -3 18 -69 35 -53 14 -46 25 14 21 25
-1 45 0 45 3 0 32 -133 256 -156 263 -12 4 -44 -76 -44 -109 0 -10 -4 -18 -10
-18 -15 0 -12 46 5 87 27 64 23 70 -52 79 -86 11 -81 30 5 25 l64 -3 -16 30
c-30 58 -133 178 -250 290 -106 101 -136 125 -136 106z"/>
<path d="M1361 2269 c1 -27 34 -109 44 -111 5 -1 25 18 44 42 l33 45 -32 13
c-54 22 -90 26 -89 11z"/>
<path d="M1959 1833 c-79 -81 -118 -137 -152 -218 -63 -152 -60 -310 8 -469
25 -58 67 -117 81 -114 7 2 48 37 91 78 106 103 243 218 366 308 31 24 57 49
57 56 0 17 -62 128 -98 176 -72 97 -238 250 -270 250 -10 0 -47 -30 -83 -67z"/>
<path d="M1035 1795 c-49 -24 -120 -56 -157 -70 -108 -42 -149 -107 -105 -162
14 -19 24 -16 65 17 43 34 106 63 179 81 47 11 54 11 71 -5 12 -10 22 -37 26
-66 7 -49 50 -120 100 -162 37 -31 119 -65 189 -78 47 -9 71 -18 77 -31 12
-21 -53 -272 -78 -301 -24 -28 -61 -30 -237 -8 -223 27 -309 32 -328 17 -23
-17 -30 -59 -15 -80 11 -15 37 -18 213 -22 110 -2 227 -9 260 -15 92 -15 113
-13 140 16 14 15 25 35 25 45 0 10 23 89 50 177 49 157 60 224 39 237 -6 4
-38 14 -71 21 -77 18 -145 55 -200 108 -66 63 -83 105 -84 211 -1 50 -2 96 -3
103 -2 24 -66 10 -156 -33z"/>
<path d="M963 1621 c-55 -19 -133 -67 -133 -83 0 -5 12 -55 27 -111 25 -90 28
-118 26 -233 l-2 -131 72 -7 c40 -3 126 -13 192 -21 168 -20 232 -20 243 3 20
39 75 250 69 266 -4 9 -16 16 -27 16 -11 0 -57 12 -102 27 -127 42 -222 141
-243 256 -7 33 -10 37 -39 37 -17 -1 -54 -9 -83 -19z"/>
<path d="M2365 1403 c-142 -107 -309 -249 -380 -324 -44 -46 -225 -257 -402
-469 -323 -387 -357 -422 -445 -453 -23 -8 -197 -13 -563 -17 l-530 -5 0 -40
0 -40 566 0 565 0 60 30 c55 28 82 57 371 404 172 206 325 382 340 392 34 23
81 24 129 4 39 -16 193 -118 267 -177 27 -21 54 -35 60 -31 48 27 187 150 187
165 0 9 -10 41 -21 70 -43 107 -69 199 -98 353 -23 120 -39 175 -50 175 -3 0
-29 -17 -56 -37z"/>
<path d="M1453 913 c-23 -32 4 -31 -359 -18 l-221 8 -33 -36 c-18 -20 -52 -44
-76 -53 -41 -16 -44 -19 -50 -64 -7 -55 -23 -69 -179 -158 -150 -85 -213 -111
-290 -118 -48 -4 -77 -13 -91 -26 -26 -23 -38 -72 -24 -98 20 -37 69 -41 485
-38 360 3 404 5 436 21 44 22 448 473 468 522 12 30 12 38 -3 60 -21 32 -37
32 -63 -2z"/>
</g>
</svg>
